<?xml version="1.0" standalone="no"?><!DOCTYPE svg PUBLIC "-//W3C//DTD SVG 1.1//EN" "http://www.w3.org/Graphics/SVG/1.1/DTD/svg11.dtd"><svg t="1777980068875" class="icon" viewBox="0 0 1024 1024" version="1.1" xmlns="http://www.w3.org/2000/svg" p-id="6570" xmlns:xlink="http://www.w3.org/1999/xlink" width="200" height="200"><path d="M1024 582.4c-6.4-12.8-12.8-19.2-25.6-19.2l-160-25.6L768 390.4c-6.4-12.8-19.2-19.2-25.6-19.2-12.8 0-25.6 6.4-25.6 19.2L633.6 531.2l-160 25.6c-12.8 0-19.2 12.8-25.6 25.6 0 6.4 0 19.2 6.4 32L576 723.2l-25.6 160c0 12.8 0 25.6 12.8 32 6.4 6.4 12.8 6.4 19.2 6.4 6.4 0 12.8 0 12.8-6.4l140.8-76.8 140.8 76.8c12.8 6.4 25.6 6.4 32 0 12.8-6.4 12.8-19.2 12.8-32l-25.6-160 115.2-115.2c12.8-6.4 12.8-19.2 12.8-25.6z m-185.6 108.8c-6.4 6.4-6.4 19.2-6.4 25.6l19.2 115.2-102.4-51.2c-6.4-6.4-19.2-6.4-32 0l-96 51.2 19.2-115.2c0-12.8 0-19.2-6.4-25.6L550.4 614.4l115.2-19.2c12.8 0 19.2-6.4 25.6-19.2l51.2-102.4 44.8 102.4c6.4 6.4 12.8 12.8 25.6 19.2l115.2 19.2-89.6 76.8z" p-id="6571" fill="#ffffff"></path><path d="M448 736H147.2c-44.8 0-83.2-38.4-83.2-83.2v-320h768v70.4c0 19.2 12.8 32 32 32s32-12.8 32-32V249.6c0-83.2-64-147.2-147.2-147.2H147.2C64 102.4 0 166.4 0 249.6v403.2c0 83.2 64 147.2 147.2 147.2H448c19.2 0 32-12.8 32-32s-12.8-32-32-32z m288-569.6c51.2 0 96 44.8 96 96v6.4H64v-6.4c0-51.2 44.8-96 96-96h576z" p-id="6572" fill="#ffffff"></path></svg>