<?xml version="1.0" standalone="no"?><!DOCTYPE svg PUBLIC "-//W3C//DTD SVG 1.1//EN" "http://www.w3.org/Graphics/SVG/1.1/DTD/svg11.dtd"><svg t="1777977932502" class="icon" viewBox="0 0 1024 1024" version="1.1" xmlns="http://www.w3.org/2000/svg" p-id="5131" xmlns:xlink="http://www.w3.org/1999/xlink" width="200" height="200"><path d="M853.333333 181.333333v778.666667a21.333333 21.333333 0 0 1-32.666666 18.093333l-330-206.266666-330 206.266666a21.333333 21.333333 0 0 1-32.666667-18.093333V181.333333a53.393333 53.393333 0 0 1 53.333333-53.333333h618.666667a53.393333 53.393333 0 0 1 53.333333 53.333333z m32-138.666666H320a21.333333 21.333333 0 0 0 0 42.666666h565.333333a10.666667 10.666667 0 0 1 10.666667 10.666667v693.333333a21.333333 21.333333 0 0 0 42.666667 0V96a53.393333 53.393333 0 0 0-53.333334-53.333333z" fill="#d81e06" p-id="5132"></path></svg>