<?xml version="1.0" standalone="no"?><!DOCTYPE svg PUBLIC "-//W3C//DTD SVG 1.1//EN" "http://www.w3.org/Graphics/SVG/1.1/DTD/svg11.dtd"><svg t="1777470351784" class="icon" viewBox="0 0 1024 1024" version="1.1" xmlns="http://www.w3.org/2000/svg" p-id="3706" xmlns:xlink="http://www.w3.org/1999/xlink" width="200" height="200"><path d="M896 827.733333H128A34.133333 34.133333 0 0 0 128 896h768a34.133333 34.133333 0 0 0 0-68.266667zM896 452.266667h-341.333333A34.133333 34.133333 0 0 1 554.666667 384h341.333333a34.133333 34.133333 0 0 1 0 68.266667zM896 605.866667H128a34.133333 34.133333 0 0 0 0 68.266666h768a34.133333 34.133333 0 0 0 0-68.266666zM896 230.4h-341.333333a34.133333 34.133333 0 0 1 0-68.266667h341.333333a34.133333 34.133333 0 0 1 0 68.266667zM140.544 243.882667l153.258667-90.325334q38.4-22.613333 77.098666-0.512 38.698667 22.101333 38.698667 66.688v188.586667q0 45.568-39.978667 67.413333t-78.293333-2.730666L138.069333 374.613333q-36.096-23.168-35.285333-66.090666 0.810667-42.922667 37.76-64.682667z" fill="#ffffff" p-id="3707"></path></svg>