<?xml version="1.0" standalone="no"?><!DOCTYPE svg PUBLIC "-//W3C//DTD SVG 1.1//EN" "http://www.w3.org/Graphics/SVG/1.1/DTD/svg11.dtd"><svg t="1777643640317" class="icon" viewBox="0 0 1024 1024" version="1.1" xmlns="http://www.w3.org/2000/svg" p-id="2456" xmlns:xlink="http://www.w3.org/1999/xlink" width="200" height="200"><path d="M300.039856 823.395475c-99.65897-38.898782-161.10981-97.796186-195.109574-140.354761-36.275623-45.405372-49.572958-81.44157-50.539869-84.142344-24.113587-56.925431-24.608225-119.822034-1.38788-177.113181 23.23087-57.317458 67.423327-102.188727 124.436899-126.349673 28.813961-12.189662 59.171034-18.368686 90.227966-18.368686 46.206527 0 91.398784 13.877481 129.560871 39.45788 6.31847 4.234677 14.847024 0.639346 16.188861-6.847312 13.757769-76.7754 64.95277-141.520316 137.846052-172.316774 28.848165-12.197555 59.228917-18.384473 90.299005-18.384473 93.316821 0 177.135545 55.437572 213.554561 141.229585 1.247118 2.700774 29.644058 65.636843 25.369914 162.830518-0.698544 15.90076-12.24886 29.23756-27.900986 32.134348l-11.159605 2.065376a47.736484 47.736484 0 0 1-35.085072-11.045155c-19.060653-16.042837-52.569725-42.311255-76.542552-50.439889-20.974743-7.060427-42.633559-10.642604-64.369992-10.642604-85.206604 0-161.315032 54.019435-189.388352 134.420424-6.981495 18.74098-38.618575 117.872425 21.69302 236.399982 8.314123 16.30068 18.763344 34.128685 29.688786 51.609391 22.361307 35.775723-10.290043 80.549643-51.16606 70.105684-56.072971-14.330022-122.447823-33.252545-176.215993-54.248336z m-32.371142-494.12332c-24.03334 0-47.537839 4.788514-69.859681 14.231357-44.181933 18.722563-78.425069 53.489278-96.421462 97.890904-17.99113 44.387155-17.597788 93.119492 1.108989 137.218547l0.585409 1.386564 0.501215 1.412875c0.101295 0.278891 11.259585 30.392592 42.134975 69.040108 30.011089 37.563523 84.440968 89.621509 173.311312 124.310608a1473.074456 1473.074456 0 0 0 124.701319 42.34809c12.07258 3.505876 22.387618-9.311291 16.43881-20.386703a911.39494 911.39494 0 0 1-8.963993-17.118937c-68.248162-134.120484-35.838869-246.525583-24.280659-277.782475 35.471837-101.015278 131.327622-168.922718 238.503507-168.922718 27.411611 0 54.706139 4.509622 81.124528 13.403892 25.811931 8.752193 49.624263 21.300993 71.043654 37.414868 4.410958 3.317756 10.686016-0.009209 10.33214-5.51863-3.683472-57.51084-19.006716-93.372073-20.086763-95.84l-0.242057-0.484113-0.520948-1.227386c-28.204873-66.499828-93.174744-109.467531-165.516822-109.46753-24.04518 0-47.59046 4.800354-69.979394 14.268192-62.230947 26.292098-104.047564 84.535686-109.12944 152.00111l-2.670518 35.437634c-1.843052 24.451678-30.542562 36.60582-49.384837 20.912913l-27.309-22.741494c-32.359303-26.94723-73.349771-41.787676-115.420284-41.787676z" fill="#d4237a" p-id="2457"></path><path d="M692.369108 879.390829a42.037626 42.037626 0 0 1-32.097514-14.852286c-19.744726-23.372946-58.209384-73.060355-94.039044-143.322586-25.710636-50.483302-29.245453-95.461128-27.68524-124.30403 1.649669-30.479417 9.002143-49.482186 9.725682-51.284457 17.058423-50.191255 64.167401-83.904234 117.262021-83.904234a123.705466 123.705466 0 0 1 39.606534 6.526323c36.125653 12.243598 63.91482 39.806494 76.614906 74.616622 2.927045 8.022076 12.468553 11.225381 19.686843 6.660507 19.721047-12.469869 42.887456-19.3527 66.298553-19.352699 13.494663 0 26.880138 2.217976 39.78413 6.590784 31.326615 10.599191 56.649171 32.748699 71.301497 62.36513 14.643117 29.596699 16.880827 63.108402 6.302684 94.371872-0.468327 1.558898-6.347412 20.376179-23.764973 45.06202-16.355932 23.179564-46.451215 56.088757-96.943725 81.225824-64.830426 32.148819-129.262247 50.372797-161.899126 58.37514a42.888771 42.888771 0 0 1-10.153228 1.22607c0.001316 0 0.001316 0 0 0z m-95.636093-314.326466c-2.370577 6.539479-20.245942 61.253511 16.007318 132.436611 31.504211 61.783668 65.157992 106.387885 83.335926 128.461092 30.520198-7.772126 87.924481-24.570075 145.081445-52.913078 71.425156-35.556031 91.561909-87.679793 93.927224-94.477115l0.038151-0.173649 0.539365-1.591786c6.121141-18.059538 4.831926-37.424077-3.629535-54.528543-8.471986-17.124199-23.128259-29.934789-41.265413-36.070402a71.584335 71.584335 0 0 0-23.028278-3.82818c-18.387104 0-36.51768 7.357736-49.745292 20.185428l-5.109502 4.117595c-26.528893 21.377294-66.27882 8.200988-74.785009-24.789767l-1.79964-6.98018c-3.971572-26.623611-22.304739-48.54027-47.849619-57.197745a71.586966 71.586966 0 0 0-22.91909-3.787399c-30.680692 0-57.902867 19.439524-67.792989 48.388985l-0.231533 0.981382-0.773529 1.766751z" fill="#d4237a" p-id="2458"></path></svg>