<?xml version="1.0" standalone="no"?><!DOCTYPE svg PUBLIC "-//W3C//DTD SVG 1.1//EN" "http://www.w3.org/Graphics/SVG/1.1/DTD/svg11.dtd"><svg t="1777877306635" class="icon" viewBox="0 0 1024 1024" version="1.1" xmlns="http://www.w3.org/2000/svg" p-id="2486" xmlns:xlink="http://www.w3.org/1999/xlink" width="200" height="200"><path d="M334.279553 70.978394c35.111276 24.186941 49.379188 63.315721 57.898234 103.889166 1.131901 8.790851 1.143071 17.339683 0.97552 26.193831l9.382865-3.943038 12.261021-5.134512 12.171661-5.101002c40.353766-16.479587 92.480793-12.987076 132.573924 2.747839 7.915861 3.663785 15.742362 7.446718 23.501842 11.430713l0.290422-6.575452c3.097835-44.773393 17.239153-87.052135 50.674917-118.157078 16.948731-10.995079 33.67406-11.635497 53.288716-9.308397 26.912439 12.663144 42.438847 37.013913 53.057867 63.997096 11.09561 33.711293 14.543441 67.318332 14.662588 102.623223l0.026063 8.25841c-0.126594 14.260465-1.519131 27.03531-4.914834 40.845249-1.548917 7.569589-1.548917 7.569589 0.46542 15.124285 8.425962 10.514766 17.667339 19.257213 27.634771 28.316146 32.367161 30.062401 44.628182 75.465042 47.413255 118.421436 1.154241 33.450658-3.861123 67.310886-20.128479 96.91159-8.805744 17.920527-5.108449 28.185828 0.699991 46.772837l3.954208 11.170077c17.484894 49.371742 16.829583 106.793385 0 156.381082a1000.302759 1000.302759 0 0 1-10.939229 21.409315c-6.802577 13.593984-6.802577 13.593984-5.815887 28.230508a292.939 292.939 0 0 0 8.563726 16.580118c12.949843 23.911412 12.607294 51.505226 12.845588 78.060223l0.104255 8.139263c-0.104254 17.38064-2.770179 27.776259-8.481812 44.918604h-55.850387l3.723359-26.063513c2.178165-41.090991 0.52127-75.815038-19.547635-112.400764-7.677566-14.785459-7.73714-23.970986-2.792519-40.256959a311.81643 311.81643 0 0 1 8.842978-14.197168c23.08855-35.200637 25.370969-75.100153 20.943894-116.1204-4.769623-21.800267-12.789738-41.124501-23.270994-60.739157-7.223317-14.011-9.360525-23.863008-6.515878-39.791538 5.101002-7.766927 10.782848-14.811522 16.624798-22.034839 19.324234-26.208725 20.21784-58.266846 16.885434-89.665934-8.686597-37.200081-27.46722-70.647015-59.413641-92.283455-23.069933-13.716855-38.979846-15.824276-65.55346-15.92853-25.047037-1.117008-25.047037-1.117008-36.433069-11.326458C597.677422 302.820795 592.16685 293.125168 586.767979 282.975291c-26.521487-30.602288-60.236503-45.536682-100.065275-50.0345C453.382363 234.497155 420.627974 248.586346 396.876666 271.805213c-10.734444 12.447189-20.150819 24.834805-26.819356 39.910686C363.366434 320.208882 363.366434 320.208882 350.814991 322.055668a746.377116 746.377116 0 0 1-15.139178-0.215955c-37.628267 0.815416-66.387493 12.443466-93.083978 39.791538C218.762337 391.209616 205.123673 427.270349 206.985352 465.419886c4.587178 30.010274 12.640804 51.680224 32.579392 74.467182 6.582899 10.537106 5.622272 17.458831 4.654199 29.786872-4.624412 11.855175-4.624412 11.855175-10.704657 23.970986-21.684843 43.526068-27.526794 91.356339-12.800909 138.229706 5.056322 13.307285 11.065823 24.566723 19.082216 36.302751 6.791407 10.254131 8.128093 13.206755 8.612129 26.063514-4.803133 15.738639-11.233374 30.077295-18.501371 44.82552-8.317984 19.052428-8.608406 37.255931-8.492982 57.797703l-0.04468 7.69246 0.014893 7.63661 0.014893 6.791407c0.677651 11.464223 2.580288 22.824191 4.203673 34.195329H169.751762c-6.22918-18.691263-8.883935-32.523542-8.842978-51.661607v-8.26958c0.606908-29.831553 4.933451-67.295992 21.148679-92.972277 3.667509-7.792991 3.667509-7.792991-1.310622-17.935421l-6.340881-12.07113C145.337696 710.405744 149.567432 646.669283 169.751762 584.567377c2.457417-4.974408 4.933451-9.945092 7.446718-14.893437-0.837756-15.068434-7.521185-26.726272-14.763119-39.635157-19.398701-44.132975-17.529575-102.168973-1.321793-146.823219C173.530971 355.729727 188.275473 334.327859 210.708712 314.158423c11.121674-10.10892 11.121674-10.10892 16.189165-23.591203-0.97552-7.763204-0.97552-7.763204-2.967517-15.954594C213.426764 222.090923 221.543686 151.026891 247.942302 104.254054c23.215144-32.113972 46.772837-46.467521 86.337251-33.279383zM303.792689 122.87085a1187.062727 1187.062727 0 0 0-8.842978 16.524268l-4.974408 9.293504c-11.914749 28.334763-13.262605 55.679112-12.711548 86.117572l0.100531 10.842422c0.089361 8.720107 0.208508 17.436491 0.364889 26.156597 9.855732-1.042541 19.704016-2.137208 29.556025-3.257939l8.515322-0.886159c7.200976-0.841479 14.360996-2.047847 21.502399-3.30262 15.020031-30.040061 2.107421-77.61342-7.446719-107.977413-4.222289-10.954122-8.694043-19.711463-14.893436-29.786873l-11.170077-3.723359z m361.165831 0c-21.316231 34.549049-30.33793 68.185875-30.252292 108.908253l-0.029787 13.787599c-0.290422 11.03976-0.290422 11.03976 4.218566 18.791793 10.07541 1.772319 19.867844 3.127622 30.021444 4.188779l8.556279 0.97552c6.996192 0.789352 13.996107 1.541471 20.996022 2.282419 2.807413-77.955969 2.807413-77.955969-26.063514-148.934363h-7.446718z" p-id="2487" fill="#ffffff"></path><path d="M552.09606 446.572242C585.047787 463.260338 610.530457 486.7175 624.00157 521.270272c7.826501 27.068821 5.168022 51.222251-6.28503 76.868749-16.181719 29.042201-41.265989 42.513314-71.905511 53.448819-18.479031 5.186639-37.497949 4.546221-56.550377 4.654199l-10.09775 0.234572c-38.991016 0.223402-74.597499-10.008389-103.59502-36.898489-17.991271-19.409871-27.381583-39.884623-28.491144-66.424726 1.534024-33.178853 13.273775-55.105714 36.083073-79.151167 44.456908-38.179324 114.098616-48.318031 168.932525-27.43371zM396.876666 517.546913c-10.276471 14.796629-13.508347 30.252293-10.298811 48.198884 6.575452 17.641275 19.845504 31.864507 35.781481 41.656941 36.053286 16.285973 85.518112 16.766286 122.621384 3.633998 19.23115-9.595096 33.934695-22.265687 43.879787-41.362796 2.718052-18.616795 0.696268-31.976208-8.142986-48.638239-17.417874-21.539632-36.637853-39.132504-64.693364-44.445738-49.494612-4.438244-85.302157 3.388257-119.147491 40.95695zM676.828589 445.641402c11.281778 8.16905 16.83703 16.967347 19.123172 30.818244 0.722332 13.355689 0.037234 20.850811-8.187666 31.544298-14.253019 10.481256-23.64333 11.914749-41.42237 9.542969-12.287085-8.779681-20.649749-19.100832-24.246515-33.901184-0.711162-13.117394 0.878713-20.612516 8.887659-31.026752 14.900883-10.954122 27.917746-12.614741 45.84572-6.977575zM338.23376 446.106822C344.749639 450.52645 344.749639 450.52645 352.196357 461.696527c2.505821 18.802963 2.118591 29.38475-9.542969 44.680309-9.464779 9.822221-12.138151 11.069547-26.294362 13.266328-11.132844-1.857956-18.318927-3.112728-27.459774-9.542969-9.21159-13.813662-9.479672-24.942783-7.446718-40.95695 4.710049-10.834975 8.396175-16.606182 17.920527-23.505566 13.597707-4.274416 25.426819-4.386117 38.860699 0.469143z" p-id="2488" fill="#ffffff"></path><path d="M486.006436 516.850645l14.297699-0.160104C512.300798 517.546913 512.300798 517.546913 519.747516 524.993631c-1.277112 19.990715-1.277112 19.990715-9.54297 27.925193-6.642473 5.696739-6.642473 5.696739-5.815886 17.220536L504.854079 580.844018c-3.723359 3.723359-3.723359 3.723359-16.755115 4.188779C475.067207 584.567377 475.067207 584.567377 471.343848 580.844018c-0.524994-9.941369-0.156381-19.823164 0-29.786873l-14.893437-7.446718c-0.160104-7.446718-0.148934-14.893436 0-22.340155 7.197253-7.197253 20.013055-4.371224 29.556025-4.42335z" p-id="2489" fill="#ffffff"></path></svg>