<?xml version="1.0" standalone="no"?><!DOCTYPE svg PUBLIC "-//W3C//DTD SVG 1.1//EN" "http://www.w3.org/Graphics/SVG/1.1/DTD/svg11.dtd"><svg t="1777977758884" class="icon" viewBox="0 0 1024 1024" version="1.1" xmlns="http://www.w3.org/2000/svg" p-id="2877" xmlns:xlink="http://www.w3.org/1999/xlink" width="200" height="200"><path d="M853.333333 128H170.666667c-25.6 0-42.666667-17.066667-42.666667-42.666667s17.066667-42.666667 42.666667-42.666666h682.666666c25.6 0 42.666667 17.066667 42.666667 42.666666s-17.066667 42.666667-42.666667 42.666667zM716.8 981.333333H307.2c-25.6 0-42.666667-17.066667-42.666667-42.666666v-388.266667H128c-17.066667 0-34.133333-12.8-38.4-29.866667-4.266667-17.066667 0-38.4 12.8-46.933333l384-290.133333c17.066667-12.8 34.133333-12.8 51.2 0l384 290.133333c12.8 12.8 21.333333 29.866667 12.8 46.933333-4.266667 17.066667-21.333333 29.866667-38.4 29.866667h-136.533333V938.666667c0 25.6-17.066667 42.666667-42.666667 42.666666z m-366.933333-85.333333h328.533333v-388.266667c0-25.6 17.066667-42.666667 42.666667-42.666666H768l-256-192-256 192h51.2c25.6 0 42.666667 17.066667 42.666667 42.666666V896z" fill="#ffffff" p-id="2878"></path></svg>